<svg width="24" height="24" viewBox="0 0 24 24" fill="none" xmlns="http://www.w3.org/2000/svg">
<path d="M4.63389 13.7504L11.3784 20.3883C11.6325 20.6383 11.7595 20.7634 11.9118 20.7906C11.9701 20.8011 12.0298 20.8011 12.088 20.7906C12.2404 20.7634 12.3674 20.6383 12.6215 20.3883L19.366 13.7504C21.163 11.9818 21.3835 9.15996 19.883 7.13372L19.469 6.57471C17.6156 4.07195 13.7559 4.47864 12.4649 7.31273C12.2832 7.71154 11.7167 7.71154 11.535 7.31273C10.2439 4.47864 6.38432 4.07195 4.5309 6.57471L4.11693 7.13372C2.6164 9.15996 2.83687 11.9818 4.63389 13.7504Z" fill="#7E869E" fill-opacity="0.25" stroke="white" stroke-width="1.4"/>
</svg>
