<svg width="25" height="25" viewBox="0 0 25 25" fill="none" xmlns="http://www.w3.org/2000/svg">
<path d="M12.0493 22.25C6.39932 22.25 1.79932 17.65 1.79932 12C1.79932 6.35 6.39932 1.75 12.0493 1.75C17.6993 1.75 22.2993 6.35 22.2993 12C22.2993 17.65 17.6993 22.25 12.0493 22.25ZM12.0493 3.25C7.21932 3.25 3.29932 7.18 3.29932 12C3.29932 16.82 7.21932 20.75 12.0493 20.75C16.8793 20.75 20.7993 16.82 20.7993 12C20.7993 7.18 16.8793 3.25 12.0493 3.25Z" fill="white"/>
<path d="M22.5497 23.2499C22.3597 23.2499 22.1697 23.1799 22.0197 23.0299L20.0197 21.0299C19.7297 20.7399 19.7297 20.2599 20.0197 19.9699C20.3097 19.6799 20.7897 19.6799 21.0797 19.9699L23.0797 21.9699C23.3697 22.2599 23.3697 22.7399 23.0797 23.0299C22.9297 23.1799 22.7397 23.2499 22.5497 23.2499Z" fill="white"/>
</svg>
