<svg width="79" height="79" viewBox="0 0 79 79" fill="none" xmlns="http://www.w3.org/2000/svg">
<circle cx="39.5715" cy="39.3215" r="38.8215" fill="url(#paint0_linear_511_1736)" fill-opacity="0.5" stroke="url(#paint1_linear_511_1736)"/>
<path d="M17.7577 38.8467L17.7651 38.8439L17.7724 38.8408C30.0586 33.6552 38.2472 30.2384 42.3419 28.5885C48.1955 26.2299 51.7189 24.8505 53.9756 24.0572C56.2405 23.261 57.1788 23.0748 57.8842 23.0627C58.0204 23.0604 58.2615 23.0762 58.5208 23.1362C58.7837 23.197 59.0266 23.2945 59.1997 23.4305C59.4773 23.6487 59.566 23.9465 59.6161 24.23C59.6671 24.5184 59.7312 25.1944 59.6814 25.7013C59.0497 32.1306 56.3099 47.7749 54.9134 55.007C54.3339 58.0082 53.2551 58.7202 52.4798 58.7893C51.3989 58.8857 50.4276 58.5452 49.4046 57.9631C48.8915 57.671 48.3759 57.3244 47.8306 56.9492C47.7404 56.8871 47.6495 56.8243 47.5576 56.7609C47.0987 56.4439 46.6183 56.1121 46.1161 55.7933C44.2654 54.618 42.8173 53.6646 41.3801 52.7166L41.1898 52.591C39.8162 51.6848 38.4363 50.7745 36.7122 49.6739C35.697 49.0258 35.1711 48.4927 34.9363 48.0571C34.7224 47.6603 34.7353 47.3194 34.9029 46.9492C35.087 46.5426 35.4568 46.1087 35.9745 45.5983C36.2002 45.3759 36.4437 45.1485 36.7015 44.9077C36.7347 44.8767 36.7681 44.8455 36.8018 44.814C37.0946 44.5404 37.402 44.2511 37.7055 43.9458C37.846 43.8043 38.5417 43.1779 39.5317 42.2864C40.6529 41.2768 42.1516 39.9273 43.649 38.5574C45.0495 37.2761 46.441 35.9839 47.4967 34.9566C48.0238 34.4437 48.4723 33.9918 48.7977 33.6381C48.9598 33.462 49.0975 33.3035 49.2006 33.1702C49.2521 33.1037 49.3001 33.0369 49.3395 32.9726C49.3736 32.917 49.4238 32.8279 49.4491 32.7233C49.4784 32.6025 49.4923 32.4092 49.4616 32.2083C49.4307 32.0062 49.3423 31.7193 49.0933 31.5049C48.8488 31.2944 48.564 31.2434 48.3406 31.2417C48.1229 31.24 47.9155 31.2854 47.7871 31.3136C47.6896 31.335 47.5864 31.3877 47.5318 31.4157C47.4549 31.4551 47.3588 31.5081 47.2459 31.5729C47.0192 31.703 46.7072 31.8904 46.3122 32.1335C45.5211 32.6204 44.3839 33.3388 42.9018 34.2877C39.937 36.1861 35.5843 39.0122 29.8446 42.7656L29.8445 42.7656L29.8413 42.7677C28.2057 43.8557 26.783 44.3452 25.5584 44.3195C24.8649 44.305 23.8108 44.111 22.6331 43.8249C21.4666 43.5416 20.2163 43.1774 19.1471 42.8407C18.8138 42.7358 18.4947 42.6385 18.191 42.546C17.2576 42.2615 16.471 42.0218 15.874 41.7417C15.4839 41.5586 15.2327 41.3828 15.089 41.2118C14.9625 41.0611 14.9117 40.9075 14.9386 40.6999C14.959 40.5419 15.1021 40.2773 15.5899 39.9263C16.0625 39.5863 16.7775 39.2243 17.7577 38.8467Z" fill="url(#paint2_linear_511_1736)" stroke="url(#paint3_linear_511_1736)"/>
<defs>
<linearGradient id="paint0_linear_511_1736" x1="0.25" y1="0" x2="48.3299" y2="94.2365" gradientUnits="userSpaceOnUse">
<stop stop-color="white" stop-opacity="0.4"/>
<stop offset="1" stop-color="white" stop-opacity="0"/>
</linearGradient>
<linearGradient id="paint1_linear_511_1736" x1="0.25" y1="0" x2="89.9017" y2="15.6732" gradientUnits="userSpaceOnUse">
<stop stop-color="#CD28E8"/>
<stop offset="1" stop-color="#0BEBD6"/>
</linearGradient>
<linearGradient id="paint2_linear_511_1736" x1="14.4316" y1="22.5625" x2="65.7663" y2="33.7412" gradientUnits="userSpaceOnUse">
<stop stop-color="#CD28E8"/>
<stop offset="1" stop-color="#0BEBD6"/>
</linearGradient>
<linearGradient id="paint3_linear_511_1736" x1="14.4316" y1="22.5625" x2="65.7663" y2="33.7412" gradientUnits="userSpaceOnUse">
<stop stop-color="#CD28E8"/>
<stop offset="1" stop-color="#0BEBD6"/>
</linearGradient>
</defs>
</svg>
